<svg xmlns="http://www.w3.org/2000/svg" xmlns:xlink="http://www.w3.org/1999/xlink" viewBox="0 0 382.13 383.81"><defs><style>.cls-1,.cls-12,.cls-13,.cls-15,.cls-5,.cls-9{fill:none;}.cls-2{clip-path:url(#clip-path);}.cls-3{fill:#4fc0b8;}.cls-4{fill:#eee8a8;}.cls-5,.cls-9{stroke:#656666;stroke-width:5px;}.cls-12,.cls-13,.cls-15,.cls-5,.cls-9{stroke-miterlimit:10;}.cls-6{fill:#b0b0ac;}.cls-7{fill:#898988;}.cls-8{fill:#f8cca0;}.cls-12,.cls-13,.cls-15,.cls-9{stroke-linecap:round;}.cls-10{fill:#fcddce;}.cls-11{fill:#f0eccf;}.cls-12,.cls-13{stroke:#ff7430;}.cls-12{stroke-width:8px;}.cls-13{stroke-width:19px;}.cls-14{fill:#656666;}.cls-15{stroke:#ecbd94;stroke-width:3px;}.cls-16{fill:#fff;}</style><clipPath id="clip-path" transform="translate(-8.87 -7.96)"><circle class="cls-1" cx="199.94" cy="199.02" r="191.06"/></clipPath></defs><g id="Layer_2" data-name="Layer 2"><g class="cls-2"><circle class="cls-3" cx="191.06" cy="191.06" r="191.06"/><ellipse class="cls-4" cx="190.28" cy="73.9" rx="14.16" ry="22.54"/><ellipse class="cls-5" cx="190.28" cy="73.9" rx="14.16" ry="22.54"/><path class="cls-6" d="M98.28,391.77c0-60.79,44.86-110.07,100.19-110.07S298.66,331,298.66,391.77" transform="translate(-8.87 -7.96)"/><path class="cls-7" d="M282.5,316.47c-6.72,44.39-62.81,42.39-84.82,69.29-16-26.86-81.75-26.09-81.75-75.1" transform="translate(-8.87 -7.96)"/><path class="cls-6" d="M286,304.16c-6.73,44.39-66.3,42.32-88.31,69.22-16-20.73-88.75-26.09-88.75-75.11" transform="translate(-8.87 -7.96)"/><path class="cls-5" d="M98.28,391.77a116.86,116.86,0,0,1,20-65.93" transform="translate(-8.87 -7.96)"/><path class="cls-5" d="M278.71,325.84a116.86,116.86,0,0,1,20,65.93" transform="translate(-8.87 -7.96)"/><path class="cls-5" d="M286,304.16c-6.73,44.39-59.5,40.41-88.31,69.22-27.7-27.7-88.75-26.09-88.75-75.11" transform="translate(-8.87 -7.96)"/><line class="cls-5" x1="117.72" y1="358.83" x2="117.72" y2="383.81"/><line class="cls-5" x1="266.3" y1="358.83" x2="266.3" y2="383.81"/><line class="cls-5" x1="158.11" y1="333.17" x2="158.11" y2="368.71"/><line class="cls-5" x1="220.02" y1="333.17" x2="220.02" y2="368.71"/><path class="cls-4" d="M72.84,236.2a129.94,129.94,0,0,1-3.14-28.51A126.83,126.83,0,0,1,93,134.9l-3.72,5.58c1-1.62,9.15-12.68,13.9-18.22l-4.75,5.54c21.59-26.21,52-43.17,101.76-43.17,81.84,0,129.58,55.72,129.58,123.06a130.79,130.79,0,0,1-3.17,28.67" transform="translate(-8.87 -7.96)"/><path class="cls-8" d="M320.25,232.73c6.83,0,12.38,9.15,12.38,20.43s-5.55,20.43-12.38,20.43a9.25,9.25,0,0,1-6.7-3.24" transform="translate(-8.87 -7.96)"/><path class="cls-8" d="M86.3,270.51a9.13,9.13,0,0,1-6.5,3c-6.84,0-12.38-9.15-12.38-20.43S73,232.69,79.8,232.69" transform="translate(-8.87 -7.96)"/><path class="cls-8" d="M86.89,269.91a120,120,0,0,1-6.5-39.06c0-35.29,27.39-94.63,53.47-110.86,20-12.43,66.64,28.33,66.64,28.33S251.38,110.2,268.59,119c20.57,10.51,52,78.68,52,111.85a121.12,121.12,0,0,1-5,35.9l-1.21,2a130.06,130.06,0,0,1-227.31,1Z" transform="translate(-8.87 -7.96)"/><path class="cls-9" d="M86.53,270.55A119.87,119.87,0,0,1,80,231.49C80,195,119.07,119,137.9,119c28.42,0,62.24,29.32,62.24,29.32S233.24,119,268.59,119c11.3,0,51.66,81.83,51.66,112.49,0,12.44-.69,18.33-3.37,30" transform="translate(-8.87 -7.96)"/><path class="cls-5" d="M73.27,235.24" transform="translate(-8.87 -7.96)"/><path class="cls-5" d="M314.08,269.39a130.06,130.06,0,0,1-227.31,1" transform="translate(-8.87 -7.96)"/><path class="cls-9" d="M98.81,126.84c19-23,48.1-42.21,101.33-42.21,83.06,0,130,58.93,130,122.1A130.26,130.26,0,0,1,327,235.4" transform="translate(-8.87 -7.96)"/><path class="cls-9" d="M73.27,235.24a130.69,130.69,0,0,1-3.14-28.51,126.77,126.77,0,0,1,23.26-72.79" transform="translate(-8.87 -7.96)"/><path class="cls-5" d="M86.54,270.56a9.16,9.16,0,0,1-6.5,3c-6.84,0-12.38-9.14-12.38-20.43S73.2,232.73,80,232.73" transform="translate(-8.87 -7.96)"/><path class="cls-5" d="M320.25,232.73c6.83,0,12.38,9.15,12.38,20.43s-5.55,20.43-12.38,20.43c-2.47,0-7-2.41-9.89-3.76" transform="translate(-8.87 -7.96)"/><path class="cls-5" d="M320.25,232.73" transform="translate(-8.87 -7.96)"/><path class="cls-9" d="M215,219.11a14.24,14.24,0,1,1-28.48,0" transform="translate(-8.87 -7.96)"/><circle class="cls-10" cx="136.17" cy="209.3" r="17.95"/><circle class="cls-10" cx="247.61" cy="209.3" r="17.95"/><path class="cls-11" d="M257.83,108.71c-1.2,4.11-9.38,5.33-18.28,2.73s-15.13-8-13.93-12.14S235,94,243.9,96.57,259,104.6,257.83,108.71Z" transform="translate(-8.87 -7.96)"/><path class="cls-12" d="M176.08,220.71c0-13.45,10.91-12,24.36-12s24.36-1.47,24.36,12" transform="translate(-8.87 -7.96)"/><path class="cls-13" d="M224.8,316.45c0,13.46-10.9,14.46-24.36,14.46s-24.36-1-24.36-14.46" transform="translate(-8.87 -7.96)"/><path class="cls-14" d="M183.69,194.88c0,6.12-5,3.65-11.08,3.65s-11.07,2.47-11.07-3.65a11.08,11.08,0,1,1,22.15,0Z" transform="translate(-8.87 -7.96)"/><path class="cls-14" d="M239.41,194.88c0,6.12-5,3.65-11.08,3.65s-11.08,2.47-11.08-3.65a11.08,11.08,0,1,1,22.16,0Z" transform="translate(-8.87 -7.96)"/><line class="cls-15" x1="234.72" y1="183.45" x2="252.68" y2="183.45"/><line class="cls-15" x1="234.72" y1="183.45" x2="251.8" y2="177.93"/><line class="cls-15" x1="234.72" y1="183.45" x2="251.64" y2="189.47"/><line class="cls-15" x1="148.67" y1="183.94" x2="130.71" y2="183.94"/><line class="cls-15" x1="148.67" y1="183.94" x2="131.59" y2="189.47"/><line class="cls-15" x1="148.67" y1="183.94" x2="131.75" y2="177.93"/><path class="cls-14" d="M167.66,160.07c-39.19-8.81-86.46-5.91-103.11,8.68-6.42,4.18-10.38,5.06-11.09,10.51-.23,1.78-.12,6.62,0,10.84,4.34.12,4.32,2.32,6.37,3.25.57,19.38,6.83,42.86,17,47,15.92,6.52,55,15.2,81,2.18s27.14-54.27,30.76-59.34,12.3-4,12.3-4V165.49S194.24,166,167.66,160.07ZM172.73,217c-3.14,7.48-10.13,21-23.64,23.39s-43.88,5.4-63.67-2.89C67.76,230.1,67.57,217,67.57,217c-1.45-12.06-3.14-38.35,2.41-44.14s17.12-10.61,48.24-11.34,51.61,3.62,59.33,12.79S175.86,209.51,172.73,217Z" transform="translate(-8.87 -7.96)"/><path class="cls-14" d="M200.58,165.49v13.75s8.68-1.08,12.3,4,4.7,46.31,30.75,59.34,65.12,4.34,81-2.18c10.19-4.17,16.45-27.65,17-47,2-.93,2-3.13,6.36-3.25a105.77,105.77,0,0,0,0-10.84c-.7-5.45-4.67-6.33-11.09-10.51-16.64-14.59-63.92-17.49-103.11-8.68C207.28,166,200.58,165.49,200.58,165.49ZM224,174.3c7.72-9.17,28.22-13.51,59.33-12.79s42.7,5.55,48.24,11.34S335.4,204.93,334,217c0,0-.2,13.11-17.85,20.5-19.79,8.29-50.17,5.31-63.68,2.89s-20.5-15.91-23.64-23.39S216.25,183.46,224,174.3Z" transform="translate(-8.87 -7.96)"/></g><path class="cls-16" d="M199.94,18A181.06,181.06,0,0,1,328,327.05,181.07,181.07,0,0,1,71.9,71a179.88,179.88,0,0,1,128-53m0-10C94.41,8,8.87,93.5,8.87,199S94.41,390.09,199.94,390.09,391,304.54,391,199,305.46,8,199.94,8Z" transform="translate(-8.87 -7.96)"/></g></svg>